<?xml version="1.0" encoding="UTF-8"?><svg id="Capa_1" xmlns="http://www.w3.org/2000/svg" viewBox="0 0 417.37 391.64"><defs><style>.cls-1{fill:#717366;stroke-width:0px;}</style></defs><path class="cls-1" d="M66.08,163.89c16.48-1.69,32.06,6.13,47.52,14.42,8.26,4.43,16.21,9.52,25.56,11.58,4.45.98,8.52-.32,10.56-3.98,2.72-4.87-1.86-7.48-5.12-9.33-14.8-8.38-29.33-17.06-42.26-28.25-24.68-21.35-30.93-49.67-28.19-80.06,1.75-19.49,18.78-32.52,40.29-35.12,21.9-2.65,34.73,4.68,44.66,23.66,9.1,17.39,8.7,36.26,10.3,54.84.85,9.84,1.53,19.65,5.68,28.71,2.89,6.32,7.3,12.36,15.15,10.67,8.32-1.8,7.86-9.87,8.41-16.4.26-3.02-1.03-6.14-1.26-9.24-2.4-33.01,1.19-64.6,25.15-90.02,14.06-14.92,32.38-18.46,51.88-14.23,21.37,4.64,31.68,21.73,27.15,43.24-5.95,28.22-25.64,47.41-44.25,67.32-4.25,4.55-8.52,9.12-12.38,13.99-1.94,2.44-2.99,5.58-.64,8.66,2.43,3.18,5.45,4.3,9.42,3.22,6.62-1.79,12.08-5.47,17.58-9.43,24.79-17.83,52.25-26.98,83.06-24.17,26.23,2.39,47.75,22.91,49.29,46.7,2.04,31.61-11.46,52.77-38.51,58.9-17.89,4.05-34.43-1.62-50.37-9.33-15.67-7.58-30.99-16.22-49.19-16.04-4.87.05-10.4-.81-12.43,5.29-2.3,6.91,3.2,9.7,7.8,12.22,17.63,9.65,35.67,18.41,49.64,33.66,26.69,29.12,26.47,72.47-1.04,100.65-13.03,13.35-42.35,20.14-58.88,13.64-16.26-6.39-27.71-33.49-23.29-55.53,2.54-12.67,6.83-25.02,6.83-38.14,0-3.57.37-7.3-.47-10.69-2.09-8.44-2.73-19.8-13.61-20.42-10.46-.6-10.13,10.75-12.54,17.94-10.94,32.65-24.11,63.6-55.67,82.38-25.71,15.3-62.61,12.77-79.53-5.85-16.44-18.09-11.77-43.99,9.87-54.79,10.09-5.04,20.96-7.52,31.84-10.18,18.01-4.4,34.89-11.08,48.19-24.86,3.32-3.44,6.57-6.53,4.29-11.46-2.33-5.04-7.35-4.73-11.74-4.07-12.53,1.88-23.6,8-35.17,12.66-27.98,11.28-55.82,15.92-83.31-1.55-18.19-11.56-26.37-30.22-21.32-49.2,5.59-21,20.11-31.63,43.79-32.04,1.79-.03,3.58,0,7.26,0Z"/></svg>