<?xml version="1.0" encoding="UTF-8"?><svg id="Capa_1" xmlns="http://www.w3.org/2000/svg" viewBox="0 0 417.37 391.64"><defs><style>.cls-1{fill:#717366;stroke-width:0px;}</style></defs><path class="cls-1" d="M216.22,35.19c6.47,0,11.78-.2,17.08.03,27.35,1.23,37.69,12.46,39.1,39.25,1.91,36.14-9.73,69.28-20.84,102.61-4.41,13.22-9.08,26.35-11.11,40.16-.54,3.68-4.97,8.93,1.06,11.4,5.53,2.27,9.52-2.16,11.3-6.58,6-14.84,16.59-26.78,24.66-40.29,11.08-18.56,22.18-37.26,38.24-52.34,31.52-29.61,70.62-18.87,80.13,23.1,5.72,25.22,16.37,49.48,15.62,76.12-.3,10.77-2.95,20.27-11.68,26.79-40.84,30.49-79.29,64.43-125.2,87.63-8.56,4.33-17.52,8.17-26.69,10.94-15.32,4.62-29.61,4.49-43.18-7.26-12.27-10.63-24.76-21.2-39.05-29.59-26.82-15.75-57.29-15.48-86.32-21.38-23.57-4.79-43.01-15.86-59.51-33.06-10.4-10.84-14.04-23.88-13.97-38.28.13-26.27,31.39-69.42,56.54-76.6,14.09-4.02,26.38,2.39,36.9,11.57,15.89,13.86,26.28,31.94,36.58,49.9,9.46,16.49,21.38,30.79,35.69,43.1,3.31,2.85,7.47,7.64,12.68,3.91,5.17-3.7,3.82-9.46,2.31-14.59-5.91-20.12-16.89-37.77-27.96-55.26-15.97-25.22-30.96-51.01-44.78-77.44-16.79-32.12-9.35-49.93,25.46-61.48,11.83-3.93,24.14-6.7,36.43-8.89,13.72-2.44,27.57-4.84,40.5-3.48Z"/></svg>