<?xml version="1.0" encoding="UTF-8"?><svg id="Capa_1" xmlns="http://www.w3.org/2000/svg" viewBox="0 0 417.37 391.64"><defs><style>.cls-1{fill:#717366;stroke-width:0px;}</style></defs><path class="cls-1" d="M347.93,321.58c-60.63-1.66-115.43-1.76-170.09-5.15-36.43-2.26-72.8-.42-109.16-2.06-15.53-.7-30.8-3.5-45.42-10.11-11.09-5.01-13.07-13.78-5.23-24.45,2.8-3.81,6.17-7.46,9.89-9.8,38.66-24.26,67.96-61.48,97.72-98.27,35.05-43.34,73.64-80.69,124.29-95.39,18.22-5.29,36.55-8.64,55.51-4.26,14.24,3.29,24.34,13.08,27.77,29.85,2.51,12.29-2.73,24.34-14.65,34.2-10.6,8.77-22.81,12.55-35.06,16.08-7.01,2.02-14.05,3.73-20.29,8.27-18.01,13.11-17.91,36.82.74,48.93,20.9,13.56,43.07,23.88,65.27,34.04,20.16,9.23,40.01,19.3,59.1,31.37,3.17,2,6.29,4.23,9.16,6.8,9.52,8.51,8.53,23.21-1.53,30.72-9.99,7.46-25.37,8.12-48.03,9.24Z"/></svg>