<?xml version="1.0" encoding="UTF-8"?><svg id="Capa_1" xmlns="http://www.w3.org/2000/svg" viewBox="0 0 417.37 391.64"><defs><style>.cls-1{fill:#717366;stroke-width:0px;}</style></defs><path class="cls-1" d="M243.69,354.42c-41.57.59-86.81-3.08-132.11-5.26-8.87-.43-17.78-2.13-25.9-6.64-5.48-3.04-11.82-5.58-11.68-12.76.14-7.28,4.05-13.42,10.7-16.83,11.35-5.82,23.41-9.88,36.24-10.23,14.32-.39,28.66.15,43,.06,6.94-.04,15.97.3,16.27-8.71.3-8.82-9.17-10.15-15.7-10.37-24.91-.83-49.49-6.17-74.47-5.27-7.92.29-15.45-1.57-23.04-2.98-12.19-2.27-20.06-9.5-20.44-22.31-.34-11.61,6.78-18.75,16.97-23.05,21.14-8.92,43.86-8.55,66.08-10.61,13-1.2,26.27.52,39.26-.7,7.61-.72,18.41-1.34,19.2-11.61.75-9.74-6.9-16.41-15.74-19.77-15.07-5.71-31.32-5.03-47.01-7.38-24.59-3.68-49.26-6.81-73.88-10.27-2.4-.34-4.77-1.2-7.06-2.07-8.39-3.2-15.42-7.4-15.77-17.95-.36-10.99,6.55-16.69,15.19-19.92,8.33-3.11,17.34-5.52,26.16-5.96,29.71-1.48,59.42-6.13,89.25-.92,5.57.97,11.48.69,17.16.16,5.38-.5,10.59-2.28,11.98-8.64,1.34-6.13-1.86-10.37-6.59-13.39-10.5-6.72-22.71-5.98-34.36-6.72-19.55-1.25-39.25,1.18-58.73-2.68-12.7-2.51-22.82-8.39-29.52-19.75-7.09-12.03-2.17-25.65,11.35-29,8.25-2.04,16.74-3.24,25.44-3.41,33.51-.68,66.99.72,100.58-1.58,37.06-2.54,74.29.68,111.31,4.36.41.04.83-.02,1.22.08,8.24,2.14,19.48,3.31,18.54,13.98-.92,10.41-11.69,10.76-20.55,10.72-13.1-.06-26.21-.12-39.31-.23-4.57-.04-9.02.42-13.09,2.65-2.9,1.59-5.95,3.54-6.07,7.13-.14,4.03,2.43,6.87,6.06,8.43,5.67,2.44,11.57,3.66,17.82,4.01,25.25,1.4,50.48,3.2,75.73,4.72,7.11.43,13.98,2.47,19.91,5.74,8.91,4.9,16.12,12.97,14.02,23.69-2.22,11.35-11.23,18.46-22.7,19.42-12.59,1.05-25.46,1.08-38.01-.29-23.32-2.56-46.52-2.98-69.55,1.24-8.43,1.55-19.83,2.5-21.01,13.59-1.17,10.96,9.42,14.65,17.5,17.87,15.34,6.13,31.82,6.95,48.14,7.21,20.89.33,41.59,1.82,61.79,7.55,10.36,2.94,20.36,7,26.85,16.1,8.93,12.54.77,30-16.74,34.87-13.36,3.71-27.26,5.21-41.15,5.39-22.48.3-45-.68-67.33,2.74-4.8.73-9.64,1.87-14.18,3.55-8.91,3.29-17.03,8.28-15.02,19.39,1.96,10.84,11.04,15.56,20.77,15.79,25.86.59,51.13,4.55,76.36,9.84,8.9,1.87,16.19,5.9,22.5,11.6,12.07,10.89,7.68,29.03-8.29,35.65-16.86,6.99-34.83,8.6-52.75,9.61-13.88.78-27.84.16-45.6.16Z"/></svg>