<?xml version="1.0" encoding="UTF-8"?><svg id="Capa_1" xmlns="http://www.w3.org/2000/svg" viewBox="0 0 1108.75 128.21"><defs><style>.cls-1{fill:#000;stroke-width:0px;}</style></defs><g id="CfXBZ3.tif"><path class="cls-1" d="M439.05,107.91c.64-1.64,1.55-3.22,1.89-4.92,2.89-14.3,5.82-28.59,8.41-42.94.99-5.48-7.01-16.06-14.19-18.74h32.3c-7.82,2.63-9.51,4.88-7.61,12.45,4.33,17.24,9.17,34.35,13.85,51.5.25.93.92,1.76,1.83,3.44.99-2.04,1.97-3.33,2.25-4.75,2.96-15.32,5.89-30.64,8.62-46.01.41-2.28-.04-4.8-.48-7.14-.96-5.09-3.93-8.37-9.29-9.5h30.72c-2.4,1.41-5.93,2.48-7.82,4.84-2.86,3.57-5.3,7.82-6.65,12.17-4.2,13.49-7.74,27.18-11.66,40.75-1.01,3.49-2.27,6.93-3.79,10.23-1.13,2.45-3.09,4.26-6.2,4.07-2.96-.17-4.65-2.08-5.5-4.51-2.52-7.2-4.85-14.47-7.16-21.75-1.88-5.93-3.62-11.9-6.22-17.82-2.77,10.18-5.49,20.37-8.35,30.53-.83,2.95-1.84,5.89-3.12,8.66-1.22,2.63-2.99,4.94-6.42,4.89-3.49-.06-5.08-2.49-6.09-5.22-1.82-4.91-3.4-9.92-4.97-14.92-3.25-10.33-6.36-20.7-9.68-31.01-1.08-3.35-2.45-6.63-3.95-9.83-2.29-4.87-5.04-9.41-10.82-11.15h31.7c-8.06,2.73-9.75,5.47-7.74,13.43,3.28,13.04,6.93,25.98,10.45,38.96.95,3.52,1.94,7.03,3,10.52.39,1.27,1.05,2.45,1.59,3.67.37.02.74.04,1.11.06Z"/><path class="cls-1" d="M300.66,13.04v52.29c2.13-4.23,3.45-8.04,5.76-11.13,3.24-4.33,6.67-8.86,10.99-11.98,7.18-5.21,14.69-3.3,18.16,4.82,3.56,8.34,5.76,17.26,8.42,25.96,2.37,7.74,4.5,15.55,6.89,23.28.74,2.38,1.84,4.67,3,6.89,2.47,4.73,4.35,6.32,9.54,8.36-5.33,0-10.31.49-15.14-.16-3.56-.49-5.19-4.06-6.15-7.25-2.04-6.76-3.77-13.61-5.58-20.44-2.31-8.7-4.51-17.43-6.91-26.1-.6-2.17-1.62-4.28-2.75-6.24-3.3-5.73-7.48-6.51-12.79-2.46-4.9,3.74-7.74,8.95-10.1,14.45-2.38,5.52-3.62,11.26-3.4,17.31.24,6.72.18,13.46.53,20.18.27,5.17,1.81,9.71,7.97,10.93h-26.81c7.14-1.43,8-6.98,8.22-12.7.29-7.52.4-15.06.36-22.59-.08-15.52-.19-31.04-.54-46.56-.12-5.22-1.88-9.74-7.68-10.37,5.74-2.06,11.75-4.23,18.02-6.49Z"/><path class="cls-1" d="M945.93,39.33c-1.61-5.11-2.99-9.93-4.65-14.65-2.11-6.01-4.33-7.18-10.72-6.07-.78.13-1.56.24-2.35.36-.09-.29-.19-.59-.28-.88,5.52-2.02,10.94-4.36,16.58-5.94,3.21-.9,4.59,2.01,5.32,4.64,2.14,7.69,4.12,15.42,6.22,23.12,4.78,17.49,9.5,34.99,14.46,52.43,1.11,3.91,2.91,7.67,4.7,11.35,1.8,3.69,4.46,6.64,8.77,7.97-4.78,0-9.72.78-14.28-.2-5.56-1.19-6.22-7.05-8.32-11.72-1.43,1.63-2.67,3.2-4.06,4.62-8.75,8.92-19.32,11.01-31.01,7.54-11.02-3.28-16.41-11.62-18.35-22.32-5.48-30.28,15.75-47.74,35.85-49.68.55-.05,1.08-.28,2.12-.57ZM946.51,41.61c-9.04.9-15.19,3.83-20.55,9.58-11.83,12.69-13.29,35.87-3.13,49.98,2.89,4.02,6.58,6.94,11.46,8.25,9.03,2.43,17.94-1.16,24.6-9.78,1.39-1.79,1.77-3.45,1.2-5.66-2.1-8.05-3.95-16.16-6.04-24.21-2.42-9.36-4.99-18.68-7.54-28.16Z"/><path class="cls-1" d="M211.75,47.08c4.28-1.1,7.53-1.69,10.59-2.79,2.98-1.07,5.78-2.66,9.2-4.28,0,1.43,0,2.61,0,3.79.02,16.32.03,32.65.07,48.97,0,1.25.11,2.51.3,3.75.73,4.83,2.37,8.92,7.74,9.32-5.83,2.12-11.9,4.33-18.17,6.62v-22.98c-3.34,4.88-6.23,9.91-9.91,14.29-5.92,7.04-13.49,11-23.08,9.3-8.1-1.44-13.39-6.93-13.9-15.17-.47-7.73-.1-15.51-.19-23.27-.07-5.47-.13-10.96-.48-16.42-.34-5.32-1.37-10.38-7.87-11.01,5.96-2.15,11.95-4.32,18.14-6.55,0,.96,0,2.18,0,3.39-.02,16.1-.05,32.19-.03,48.29,0,2.15.14,4.34.54,6.46,1.42,7.54,6.77,11.02,14.13,8.69,12.17-3.85,19.58-12.72,21.65-24.78,1.48-8.63.62-17.7.35-26.55-.15-4.84-2.58-8.49-9.08-9.05Z"/><path class="cls-1" d="M883.11,112.47v-22.92c-3.31,4.83-6.21,9.86-9.9,14.25-5.19,6.19-11.78,10.03-20.36,9.58-9.28-.49-15.97-6.28-16.58-15.54-.51-7.73-.1-15.51-.19-23.27-.06-5.36-.16-10.73-.44-16.08-.29-5.47-1.43-10.51-7.7-11.38,5.69-2.05,11.6-4.19,17.93-6.47,0,.77,0,1.93,0,3.1-.02,16.1-.05,32.19-.03,48.29,0,2.27.13,4.57.55,6.8,1.42,7.53,6.78,10.95,14.16,8.63,11.92-3.74,19.41-12.42,21.46-24.15,1.62-9.27.64-19.05.24-28.57-.18-4.32-3.1-7.24-7.52-7.53,5.97-2.13,12.05-4.3,18.49-6.59,0,.85,0,2.04,0,3.22.02,16.32.04,32.65.07,48.97,0,1.03.05,2.06.19,3.07.72,5.01,2.12,9.5,7.76,9.98-5.76,2.1-11.84,4.31-18.14,6.61Z"/><path class="cls-1" d="M511.02,71.59c-.61,13.55,8.83,26.77,22.21,31.61,7.73,2.8,15.47,2.91,23.21,0,7.65-2.88,13.01-8.24,17.25-15.18-.37,1.21-.64,2.46-1.12,3.63-5.85,14.38-20.41,23.03-36.35,21.64-15.83-1.39-29.9-13.74-32.88-29.19-2.68-13.89,1.21-25.87,11.92-35.18,10.67-9.29,23.13-11.65,36.65-7.38,7.24,2.28,12.63,6.92,15.44,14.09,3.64,9.28-.67,15.74-10.7,15.91-8.84.15-17.68.05-26.52.05-6.29,0-12.59,0-19.11,0ZM510.79,69.44c.94.07,1.5.16,2.05.15,11.01-.22,22.02-.35,33.02-.77,2.69-.1,5.43-.87,7.98-1.79,3.21-1.17,4.78-3.69,4.67-7.2-.17-5.71-2.64-10.2-7.59-12.96-8.86-4.93-18.19-5.76-27.28-.98-9.16,4.82-11.95,13.55-12.85,23.55Z"/><path class="cls-1" d="M19.65,84.26c1.56,6.95,4.66,13.07,9.53,18.3,8.47,9.09,22.89,11.51,33.46,5.53,3.41-1.93,6.02-4.54,7.2-8.36,1.66-5.39.17-10.19-5.13-12.75-5.2-2.52-10.91-4.03-16.44-5.84-7.17-2.34-14.54-4.17-21.55-6.89-5.9-2.29-9.7-6.78-10.06-13.5-.37-7.08,3-12.31,8.95-15.42,15.58-8.14,31.23-8.1,46.51,1.04,3.38,2.03,3.11,5.76-.44,7.74-3.22,1.8-6.28.99-8.99-1.11-2.44-1.89-4.64-4.09-7.03-6.05-6.93-5.68-16.37-6.51-24.16-2.14-4.27,2.4-7.16,5.82-7.08,10.92.08,5.19,3.15,8.73,7.77,10.29,7.25,2.45,14.78,4.08,22.1,6.37,4.79,1.5,9.61,3.14,14.04,5.43,6.49,3.37,9.29,9.17,9.08,16.44-.2,6.91-3.8,11.86-9.78,14.59-16.39,7.45-32.31,6.29-47.4-3.73-.65-.43-1.37-1.36-1.38-2.07-.11-6.22-.06-12.43-.06-18.65.29-.04.59-.08.88-.13Z"/><path class="cls-1" d="M582.07,84.24c1.57,6.95,4.66,13.07,9.53,18.3,8.54,9.17,23.37,11.79,33.67,5.27,2.88-1.82,5.44-5,6.83-8.13,2.27-5.12.35-10.13-4.93-12.69-5.2-2.52-10.91-4.04-16.44-5.85-7.28-2.38-14.94-3.89-21.84-7.07-12.56-5.79-13.36-20.15-2.07-28.07,12.71-8.92,36.2-8.43,48.58.89,2.48,1.86,1.73,3.73.47,5.59-2.15,3.16-6.66,3.51-10.45.72-2.57-1.9-4.84-4.2-7.32-6.23-6.93-5.69-16.35-6.53-24.16-2.16-4.28,2.39-7.17,5.81-7.1,10.9.07,5.19,3.13,8.74,7.74,10.31,7.25,2.46,14.78,4.09,22.09,6.38,4.79,1.5,9.61,3.13,14.04,5.43,6.63,3.44,9.41,9.37,9.08,16.77-.31,6.91-4.05,11.74-10.05,14.42-16.31,7.27-32.13,6.08-47.1-3.87-.66-.44-1.39-1.35-1.4-2.06-.11-6.22-.06-12.45-.06-18.67.29-.05.58-.1.87-.15Z"/><path class="cls-1" d="M724.63,84.27c.42,1.35.83,2.69,1.25,4.04,4.62,14.75,16.88,23.97,30.83,22.96,6.48-.47,12.41-2.44,16.46-7.98,4.19-5.74,3.13-12.91-3.16-16.17-5.11-2.65-10.87-4.13-16.4-5.93-7.17-2.34-14.55-4.13-21.57-6.83-6.02-2.32-9.96-6.83-10.27-13.71-.33-7.24,3.25-12.46,9.33-15.55,15.41-7.83,30.86-7.8,45.93,1.14,3.7,2.2,3.32,6.18-.64,8.08-3.33,1.6-6.31.54-8.96-1.57-2.33-1.85-4.44-3.97-6.74-5.86-6.72-5.49-15.89-6.4-23.56-2.35-4.56,2.4-7.71,5.89-7.58,11.3.13,5.35,3.42,8.79,8.17,10.37,7.05,2.35,14.35,3.92,21.45,6.14,4.89,1.53,9.84,3.18,14.37,5.53,6.35,3.3,9.13,9.01,9,16.15-.13,6.91-3.6,11.93-9.59,14.7-16.49,7.64-32.5,6.41-47.7-3.66-.58-.39-1.27-1.18-1.28-1.79-.09-6.3-.06-12.61-.06-18.91.25-.03.5-.07.75-.1Z"/><path class="cls-1" d="M160.13,76.65c-.09,20.38-16.81,36.79-37.43,36.74-20.55-.05-37.19-16.64-37.14-37.02.05-20.27,16.99-36.94,37.42-36.84,20.51.11,37.24,16.82,37.14,37.12ZM115.08,45.46c-15.07-.19-25.38,11.22-23.76,26.27,1.87,17.28,17.3,33.06,34.7,35.48,17.68,2.46,30.11-8.98,28.35-26.11-1.93-18.83-20.2-35.41-39.3-35.64Z"/><path class="cls-1" d="M1094.06,76.59c-.06,20.37-16.77,36.83-37.37,36.8-20.56-.03-37.23-16.59-37.2-36.96.02-20.28,16.92-36.96,37.36-36.9,20.5.07,37.26,16.76,37.2,37.06ZM1048.77,45.45c-14.86-.11-25.08,11.27-23.52,26.18,1.81,17.27,17.18,33.06,34.61,35.57,17.79,2.56,30.35-9.08,28.42-26.34-2.12-18.89-20.39-35.27-39.51-35.41Z"/><path class="cls-1" d="M251.8,44.03h-10.95c.82-1.47,1.1-2.82,1.81-3.11,8.49-3.41,12.96-10.52,17.05-18.01.46-.83.85-1.7,1.93-2.41v20.47c3.39,0,6.47-.28,9.47.09,2.07.26,5.93-1.69,5.89,1.47-.04,2.84-3.92,1.1-6.05,1.34-2.93.32-5.92.08-9.29.08,0,1.48,0,2.59,0,3.71,0,15.97-.04,31.94.04,47.91.01,2.71.22,5.5.89,8.12,1.73,6.72,7.12,8.58,12.88,4.55,1.62-1.13,2.98-2.64,4.69-4.19-1.48,4.85-7.8,9.16-13.25,9.33-6.72.2-11.83-2.83-13.58-8.78-1.01-3.44-1.44-7.16-1.47-10.77-.16-15.28-.07-30.57-.07-45.85,0-1.22,0-2.44,0-3.95Z"/><path class="cls-1" d="M654.32,44.05h-10.9c.78-1.46,1.03-2.84,1.73-3.12,8.51-3.39,12.97-10.51,17.07-17.98.46-.84.86-1.73,1.93-2.46v20.49c4.53,0,8.73-.09,12.91.07.95.04,1.87.95,2.81,1.46-.97.48-1.92,1.34-2.9,1.38-4.11.16-8.22.07-12.78.07,0,1.46,0,2.57,0,3.67,0,15.97-.04,31.94.04,47.91.01,2.71.22,5.5.88,8.12,1.72,6.74,7.09,8.62,12.86,4.61,1.63-1.13,2.99-2.65,4.65-4.15-1.27,4.67-7.7,9.08-13.15,9.26-6.73.22-11.84-2.81-13.6-8.75-1.02-3.44-1.45-7.16-1.48-10.76-.16-15.28-.07-30.57-.07-45.85v-3.96Z"/><path class="cls-1" d="M825.13,104.26c-2.89,6.36-9.21,9.75-15.77,9.05-6.03-.65-10.44-4.82-11.62-11.32-.51-2.79-.7-5.66-.71-8.5-.07-15.17-.03-30.34-.03-45.51v-3.95h-10.94c.82-1.47,1.09-2.82,1.8-3.11,8.49-3.41,12.96-10.52,17.05-18,.46-.83.85-1.7,1.93-2.41v20.47c4.07,0,7.82-.14,11.55.07,1.41.08,3.82-1.32,3.95,1.5.02.41-2.65,1.26-4.11,1.34-3.64.2-7.3.06-11.37.06v3.7c0,15.97-.04,31.94.04,47.91.01,2.71.22,5.5.89,8.12,1.73,6.72,7.12,8.58,12.88,4.56,1.62-1.13,2.98-2.64,4.46-3.98Z"/><path class="cls-1" d="M987.38,111.65c6.85-1.25,8.09-6.46,8.15-12.02.15-14.12.13-28.25-.13-42.37-.09-5.05-1.9-9.47-7.71-10.09,5.85-2.11,11.82-4.26,18.09-6.52,0,.86,0,2.05,0,3.24-.02,15.96-.08,31.92-.04,47.88,0,3.41.27,6.83.63,10.22.5,4.8,2.32,8.64,7.85,9.66h-26.83Z"/><path class="cls-1" d="M1009.16,27.71c.04,4.99-3.85,8.93-8.87,8.98-5.06.05-8.99-3.76-9.04-8.78-.05-5,3.85-8.98,8.83-9.02,5-.04,9.03,3.88,9.07,8.81Z"/></g></svg>