<?xml version="1.0" encoding="UTF-8"?><svg id="Capa_1" xmlns="http://www.w3.org/2000/svg" viewBox="0 0 417.37 414.05"><defs><style>.cls-1{fill:#fff;stroke-width:0px;}</style></defs><path class="cls-1" d="M208.69,11.81C100.87,11.81,13.47,99.21,13.47,207.02s87.4,195.22,195.22,195.22,195.22-87.4,195.22-195.22S316.5,11.81,208.69,11.81ZM208.69,384.51c-98.02,0-177.49-79.46-177.49-177.49S110.66,29.54,208.69,29.54s177.49,79.46,177.49,177.49-79.46,177.49-177.49,177.49Z"/><path class="cls-1" d="M217.23,324.08v-106.79h35.84l5.37-41.63h-41.22v-26.57c0-12.05,3.34-20.26,20.62-20.26h22.04v-37.24c-3.81-.51-16.89-1.64-32.11-1.64-31.78,0-53.53,19.4-53.53,55.02v30.69h-35.93v41.63h35.93v106.79h42.98Z"/></svg>