<?xml version="1.0" encoding="UTF-8"?><svg id="Capa_1" xmlns="http://www.w3.org/2000/svg" viewBox="0 0 417.37 414.05"><defs><style>.cls-1{fill:#fff;stroke-width:0px;}</style></defs><path class="cls-1" d="M208.69,11.81C100.87,11.81,13.47,99.21,13.47,207.02s87.4,195.22,195.22,195.22,195.22-87.4,195.22-195.22S316.5,11.81,208.69,11.81ZM208.69,384.51c-98.02,0-177.49-79.46-177.49-177.49S110.66,29.54,208.69,29.54s177.49,79.46,177.49,177.49-79.46,177.49-177.49,177.49ZM204.44,125.65c25.82,0,28.88.1,39.07.57,9.43.43,14.55,2,17.96,3.33,4.51,1.75,7.73,3.85,11.12,7.23,3.39,3.38,5.48,6.6,7.24,11.12,1.32,3.41,2.9,8.53,3.33,17.95.47,10.2.57,13.26.57,39.08s-.1,28.88-.57,39.07c-.43,9.43-2,14.55-3.33,17.96-1.76,4.51-3.85,7.73-7.24,11.12-3.39,3.39-6.61,5.48-11.12,7.23-3.41,1.33-8.53,2.9-17.96,3.33-10.2.46-13.26.56-39.07.56s-28.88-.1-39.08-.56c-9.43-.43-14.55-2-17.96-3.33-4.51-1.75-7.73-3.85-11.12-7.23-3.38-3.38-5.48-6.6-7.24-11.12-1.32-3.41-2.9-8.53-3.33-17.96-.47-10.2-.56-13.26-.56-39.07s.1-28.88.56-39.08c.43-9.43,2-14.55,3.33-17.95,1.76-4.52,3.85-7.74,7.24-11.12,3.39-3.39,6.6-5.48,11.12-7.23,3.41-1.32,8.53-2.9,17.96-3.33,10.2-.47,13.25-.57,39.08-.57M204.44,108.22c-26.26,0-29.55.11-39.87.58-10.29.47-17.32,2.1-23.47,4.5-6.36,2.47-11.76,5.77-17.13,11.15-5.38,5.38-8.68,10.77-11.15,17.13-2.39,6.15-4.03,13.18-4.49,23.47-.47,10.32-.59,13.61-.59,39.87s.11,29.55.59,39.87c.47,10.29,2.1,17.32,4.49,23.47,2.47,6.36,5.78,11.75,11.15,17.13,5.37,5.38,10.77,8.68,17.13,11.15,6.15,2.39,13.18,4.03,23.47,4.49,10.32.47,13.61.58,39.87.58s29.55-.11,39.87-.58c10.29-.47,17.32-2.1,23.47-4.49,6.36-2.47,11.75-5.78,17.13-11.15,5.38-5.38,8.68-10.77,11.15-17.13,2.39-6.15,4.03-13.18,4.49-23.47.47-10.31.59-13.61.59-39.87s-.11-29.56-.59-39.87c-.47-10.29-2.1-17.32-4.49-23.47-2.47-6.36-5.78-11.75-11.15-17.13-5.38-5.37-10.77-8.68-17.13-11.15-6.15-2.39-13.18-4.03-23.47-4.5-10.32-.47-13.61-.58-39.87-.58M204.44,155.27c-27.42,0-49.66,22.23-49.66,49.66s22.23,49.66,49.66,49.66,49.66-22.23,49.66-49.66-22.23-49.66-49.66-49.66M204.44,237.16c-17.8,0-32.24-14.43-32.24-32.23s14.44-32.23,32.24-32.23,32.23,14.43,32.23,32.23-14.43,32.23-32.23,32.23M267.66,153.31c0-6.41-5.19-11.61-11.6-11.61s-11.6,5.2-11.6,11.61,5.2,11.6,11.6,11.6,11.6-5.19,11.6-11.6"/></svg>