<?xml version="1.0" encoding="UTF-8"?><svg id="Capa_1" xmlns="http://www.w3.org/2000/svg" viewBox="0 0 417.37 414.05"><defs><style>.cls-1{fill:#fff;stroke-width:0px;}</style></defs><path class="cls-1" d="M208.69,11.81C100.87,11.81,13.47,99.21,13.47,207.02s87.4,195.22,195.22,195.22,195.22-87.4,195.22-195.22S316.5,11.81,208.69,11.81ZM208.69,384.51c-98.02,0-177.49-79.46-177.49-177.49S110.66,29.54,208.69,29.54s177.49,79.46,177.49,177.49-79.46,177.49-177.49,177.49Z"/><path class="cls-1" d="M316.01,163.23s-2.14-15.09-8.71-21.74c-8.33-8.72-17.66-8.77-21.94-9.28-30.65-2.22-76.63-2.22-76.63-2.22h-.09s-45.97,0-76.63,2.22c-4.28.51-13.61.56-21.94,9.28-6.56,6.65-8.7,21.74-8.7,21.74,0,0-2.19,17.72-2.19,35.44v16.62c0,17.72,2.19,35.45,2.19,35.45,0,0,2.14,15.09,8.7,21.74,8.33,8.72,19.28,8.45,24.15,9.36,17.53,1.68,74.47,2.2,74.47,2.2,0,0,46.02-.07,76.67-2.28,4.28-.51,13.61-.56,21.94-9.28,6.56-6.65,8.71-21.74,8.71-21.74,0,0,2.19-17.72,2.19-35.45v-16.62c0-17.72-2.19-35.44-2.19-35.44ZM186.07,235.43v-61.54l59.18,30.88-59.18,30.66Z"/></svg>